<?xml version="1.0" standalone="no"?>
<!DOCTYPE svg PUBLIC "-//W3C//DTD SVG 20010904//EN"
 "http://www.w3.org/TR/2001/REC-SVG-20010904/DTD/svg10.dtd">
<svg version="1.0" xmlns="http://www.w3.org/2000/svg"
 width="100.000000pt" height="100.000000pt" viewBox="0 0 100.000000 100.000000"
 preserveAspectRatio="xMidYMid meet">

<g transform="translate(0.000000,100.000000) scale(0.100000,-0.100000)"
fill="#000000" stroke="none">
<path d="M452 830 c-27 -39 -27 -39 -93 -40 -58 0 -67 2 -72 20 -4 17 -14 20
-57 20 -43 0 -53 -3 -57 -20 -3 -11 -11 -20 -18 -20 -7 0 -24 -9 -39 -21 l-26
-20 0 -288 0 -288 23 -21 c23 -22 27 -22 388 -22 l366 0 21 23 c22 23 22 29
22 309 l0 287 -26 20 c-17 13 -41 21 -65 21 -34 0 -42 5 -65 40 l-27 40 -123
0 -124 0 -28 -40z m263 -224 c69 -53 92 -143 56 -221 -79 -174 -333 -131 -349
59 -3 39 1 62 16 92 40 79 87 105 178 101 50 -2 69 -8 99 -31z"/>
</g>
</svg>
